<svg width="383" height="341" xmlns="http://www.w3.org/2000/svg" xmlns:xlink="http://www.w3.org/1999/xlink" xml:space="preserve" overflow="hidden"><defs><clipPath id="clip0"><rect x="26" y="37" width="383" height="341"/></clipPath></defs><g clip-path="url(#clip0)" transform="translate(-26 -37)"><path d="M333.535 1041.49C330.421 1044.42 327.319 1047.13 323.986 1049.82 323.949 1060.2 323.085 1069.13 321.23 1079.34 319.423 1088.32 316.361 1091.91 308.146 1096.19 304.767 1097.81 301.417 1099.3 297.954 1100.72 293.14 1102.67 288.448 1104.36 283.499 1105.94 274.404 1108.42 270.496 1107.09 262.757 1102.53 254.43 1096.37 247.546 1090.4 240.307 1082.99 235.882 1083.34 231.615 1083.52 227.176 1083.53 223.61 1083.52 220.155 1083.41 216.639 1083.18L227.176 1072.64 253.008 1046.81C259.237 1045.48 265.294 1043.64 271.98 1041.09 272.101 1041.04 273.365 1040.54 273.365 1040.54 285.205 1035.54 293.966 1030.33 303.972 1022.27 306.083 1020.53 310.118 1016.83 310.118 1016.83 310.18 1016.77 310.833 1016.15 310.833 1016.15 312.586 1014.45 314.253 1012.73 315.903 1010.93 324.697 1001.07 330.388 992.401 335.839 980.36 335.839 980.36 335.876 980.279 335.871 980.281 340.97 968.217 343.432 958.333 344.594 945.283 344.806 942.497 344.913 936.909 344.913 936.909 344.912 934.114 344.594 928.535 344.594 928.535 343.431 915.486 340.969 905.6 335.871 893.538 335.869 893.531 335.839 893.459 335.839 893.459 330.392 881.422 324.692 872.742 315.903 862.884 314.251 861.083 312.588 859.373 310.833 857.671 310.812 857.684 310.118 856.986 310.118 856.986 308.134 855.102 303.972 851.547 303.972 851.547 293.977 843.492 285.197 838.266 273.366 833.28 272.905 833.092 272.443 832.906 271.981 832.724 259.476 827.957 249.172 825.665 235.83 824.589 232.95 824.39 227.178 824.291 227.178 824.291 224.292 824.292 218.527 824.589 218.527 824.589 205.185 825.665 194.881 827.957 182.376 832.724 182.254 832.772 180.99 833.28 180.99 833.28 169.15 838.273 160.389 843.484 150.383 851.547 149.667 852.138 148.728 852.954 147.8 853.775L123.699 829.674C125.866 827.725 128.063 825.855 130.37 823.994 130.406 813.618 131.271 804.683 133.125 794.474 134.933 785.49 137.995 781.902 146.21 777.622 149.588 776.006 152.938 774.519 156.402 773.095 161.215 771.146 165.907 769.454 170.857 767.879 179.951 765.397 183.859 766.722 191.598 771.281 199.925 777.447 206.81 783.412 214.048 790.824 218.473 790.472 222.741 790.297 227.18 790.283 231.618 790.297 235.886 790.471 240.311 790.824 247.553 783.41 254.431 777.45 262.76 771.281 270.108 766.044 274.694 765.419 283.503 767.879 288.448 769.452 293.146 771.146 297.957 773.095 301.419 774.519 304.771 776.006 308.148 777.622 316.612 782.091 318.657 785.707 321.232 794.473 323.086 804.69 323.95 813.607 323.988 823.993 327.321 826.68 330.424 829.387 333.537 832.325 333.617 832.402 334.46 833.21 334.46 833.21 337.241 835.911 339.839 838.62 342.422 841.513 352.821 841.063 361.782 841.509 372.097 842.908 381.17 844.319 384.909 847.239 389.538 855.287 391.657 859.29 393.568 863.233 395.397 867.377 397.203 871.535 398.806 875.613 400.308 879.89 403.096 889.005 401.92 893.029 397.517 900.983 391.519 909.538 385.742 916.452 378.328 923.812 378.718 928.232 378.909 932.469 378.925 936.905 378.911 941.341 378.719 945.578 378.328 949.998 385.743 957.359 391.518 964.272 397.517 972.827 402.612 980.396 403.062 985.106 400.308 993.92 398.806 998.195 397.203 1002.28 395.397 1006.43 393.568 1010.58 391.657 1014.52 389.538 1018.52 384.71 1026.81 380.987 1028.71 372.097 1030.9 361.775 1032.3 352.828 1032.75 342.422 1032.3 339.839 1035.19 337.242 1037.9 334.461 1040.6 334.155 1040.9 333.846 1041.19 333.538 1041.48Z" fill="#EE3D37" transform="matrix(1.00081 0 0 1 4.75953 -729.331)"/><path d="M149.892 1072.03 111.591 1033.73 169.563 1033.73C170.844 1040.67 176.926 1045.93 184.236 1045.93 192.479 1045.93 199.159 1039.24 199.159 1031 199.159 1022.76 192.478 1016.08 184.236 1016.08 177.199 1016.08 171.3 1020.95 169.727 1027.51L111.811 1027.51 149.897 989.419C166.43 972.886 193.482 972.886 210.015 989.419L251.324 1030.73 210.02 1072.03C193.485 1088.57 166.427 1088.57 149.892 1072.03Z" fill="#7AC043" fill-rule="evenodd" transform="matrix(1.00081 0 0 1 4.75953 -729.331)"/><path d="M34.7687 892.346 101.689 825.425 168.609 892.346C186.67 910.406 186.67 939.959 168.609 958.019L105.358 1021.27 105.358 932.989C114.688 931.265 121.755 923.088 121.755 913.259 121.755 902.177 112.771 893.193 101.689 893.193 90.6065 893.193 81.6231 902.177 81.6231 913.259 81.6231 922.722 88.1743 930.653 96.9887 932.769L96.9887 1020.24 34.7687 958.019C16.7082 939.959 16.7082 910.405 34.7687 892.346Z" fill="#7AC043" fill-rule="evenodd" transform="matrix(1.00081 0 0 1 4.75953 -729.331)"/><path d="M475.878 990.608 475.878 940.081 495.271 940.081C500.146 940.081 503.682 940.54 505.892 941.445 508.101 942.35 509.874 943.962 511.202 946.279 512.529 948.608 513.188 951.255 513.188 954.243 513.188 958.031 512.18 961.172 510.172 963.643 508.164 966.101 505.148 967.665 501.145 968.301 503.142 969.595 504.789 971.006 506.083 972.548 507.379 974.088 509.121 976.818 511.318 980.748L516.895 990.606 505.882 990.606 499.222 979.607C496.853 975.677 495.24 973.207 494.369 972.184 493.498 971.16 492.574 970.465 491.598 970.077 490.621 969.701 489.081 969.513 486.956 969.513L485.098 969.513 485.098 990.606 475.88 990.606ZM485.096 961.445 491.904 961.445C496.323 961.445 499.084 961.245 500.187 960.833 501.282 960.422 502.142 959.703 502.767 958.692 503.383 957.68 503.702 956.421 503.702 954.904 503.702 953.198 503.288 951.833 502.47 950.786 501.651 949.74 500.495 949.079 498.998 948.798 498.254 948.692 496.013 948.633 492.275 948.633L485.095 948.633 485.095 961.445ZM521.874 990.608 521.874 940.081 555.689 940.081 555.689 948.633 531.08 948.633 531.08 959.833 553.978 959.833 553.978 968.339 531.08 968.339 531.08 982.09 556.559 982.09 556.559 990.608 521.872 990.608ZM564.376 990.608 564.376 940.081 579.149 940.081C584.745 940.081 588.4 940.34 590.099 940.846 592.711 941.6 594.91 943.247 596.674 945.787 598.437 948.329 599.319 951.61 599.319 955.622 599.319 958.728 598.81 961.34 597.79 963.446 596.77 965.564 595.486 967.223 593.914 968.434 592.352 969.633 590.759 970.433 589.144 970.823 586.945 971.305 583.759 971.553 579.585 971.553L573.584 971.553 573.584 990.611 564.376 990.611ZM573.584 948.633 573.584 962.962 578.618 962.962C582.25 962.962 584.682 962.702 585.903 962.174 587.124 961.645 588.081 960.821 588.781 959.691 589.472 958.562 589.823 957.256 589.823 955.762 589.823 953.927 589.334 952.41 588.357 951.209 587.391 950.021 586.148 949.267 584.661 948.973 583.556 948.738 581.347 948.632 578.033 948.632L573.583 948.632ZM606.815 940.081 616.023 940.081 616.023 967.444C616.023 971.786 616.14 974.609 616.362 975.89 616.755 977.961 617.7 979.62 619.177 980.866 620.665 982.125 622.693 982.747 625.263 982.747 627.876 982.747 629.851 982.16 631.179 980.971 632.506 979.795 633.303 978.336 633.568 976.617 633.844 974.889 633.97 972.029 633.97 968.03L633.97 940.077 643.178 940.077 643.178 966.617C643.178 972.688 642.934 976.97 642.435 979.475 641.936 981.981 641.022 984.087 639.685 985.817 638.347 987.534 636.552 988.911 634.321 989.934 632.08 990.957 629.149 991.463 625.539 991.463 621.185 991.463 617.881 990.911 615.63 989.793 613.378 988.675 611.606 987.228 610.299 985.453 608.993 983.676 608.133 981.806 607.718 979.853 607.113 976.958 606.815 972.689 606.815 967.03L606.815 940.077ZM652.919 940.081 671.154 940.081C674.766 940.081 677.462 940.246 679.236 940.586 681.009 940.916 682.591 941.61 683.994 942.669 685.396 943.727 686.552 945.128 687.487 946.893 688.422 948.647 688.89 950.623 688.89 952.799 688.89 955.163 688.315 957.341 687.169 959.317 686.012 961.293 684.451 962.776 682.486 963.764 685.258 964.659 687.404 966.188 688.891 968.341 690.388 970.505 691.132 973.047 691.132 975.963 691.132 978.257 690.655 980.492 689.688 982.669 688.722 984.834 687.406 986.576 685.737 987.87 684.07 989.164 682.009 989.964 679.555 990.269 678.026 990.445 674.32 990.563 668.447 990.61L652.921 990.61 652.921 940.082ZM662.137 948.492 662.137 960.174 668.169 960.174C671.759 960.174 673.989 960.117 674.86 959.998 676.432 959.798 677.675 959.198 678.578 958.198 679.482 957.198 679.928 955.88 679.928 954.245 679.928 952.679 679.545 951.41 678.77 950.434 677.985 949.457 676.827 948.868 675.296 948.668 674.383 948.55 671.759 948.492 667.427 948.492L662.139 948.492ZM662.137 968.585 662.137 982.09 670.655 982.09C673.979 982.09 676.081 981.997 676.973 981.784 678.342 981.513 679.458 980.831 680.319 979.773 681.179 978.703 681.615 977.267 681.615 975.479 681.615 973.962 681.275 972.679 680.616 971.621 679.948 970.563 678.991 969.786 677.738 969.304 676.486 968.821 673.756 968.587 669.572 968.587L662.137 968.587ZM699.161 990.608 699.161 940.493 708.369 940.493 708.369 982.092 731.267 982.092 731.267 990.61 699.162 990.61ZM737.554 990.608 737.554 940.081 746.762 940.081 746.762 990.608ZM755.662 990.608 755.662 940.081 764.87 940.081 764.87 962.515 783.478 940.081 795.862 940.081 778.688 959.763 796.797 990.608 784.88 990.608 772.348 966.892 764.872 975.338 764.872 990.608 755.664 990.608ZM818.981 990.608 818.981 940.081 828.189 940.081 828.189 990.608ZM837.056 990.608 837.056 940.081 846.02 940.081 864.691 973.821 864.691 940.081 873.25 940.081 873.25 990.608 864 990.608 845.616 957.657 845.616 990.608ZM882.957 940.081 899.79 940.081C903.581 940.081 906.471 940.398 908.467 941.046 911.144 941.916 913.438 943.469 915.338 945.704 917.249 947.928 918.705 950.656 919.703 953.88 920.691 957.116 921.19 961.092 921.19 965.833 921.19 969.986 920.723 973.574 919.788 976.586 918.652 980.255 917.026 983.232 914.902 985.502 913.31 987.231 911.154 988.573 908.434 989.538 906.406 990.255 903.688 990.608 900.277 990.608L882.956 990.608 882.956 940.081ZM892.165 948.633 892.165 982.09 899.036 982.09C901.606 982.09 903.465 981.938 904.612 981.608 906.1 981.197 907.341 980.502 908.329 979.513 909.317 978.525 910.112 976.89 910.74 974.631 911.355 972.372 911.674 969.277 911.674 965.373 911.674 961.466 911.355 958.479 910.74 956.384 910.112 954.29 909.242 952.654 908.128 951.49 907.001 950.314 905.579 949.525 903.859 949.114 902.575 948.784 900.057 948.632 896.296 948.632L892.165 948.632ZM927.138 965.657C927.138 960.505 927.828 956.186 929.219 952.693 930.26 950.129 931.673 947.81 933.468 945.764 935.263 943.729 937.228 942.212 939.362 941.222 942.209 939.881 945.479 939.222 949.196 939.222 955.918 939.222 961.292 941.528 965.328 946.151 969.364 950.763 971.382 957.186 971.382 965.409 971.382 973.574 969.374 979.949 965.371 984.561 961.367 989.161 956.015 991.467 949.324 991.467 942.538 991.467 937.141 989.172 933.138 984.596 929.134 980.008 927.138 973.691 927.138 965.656ZM936.622 965.316C936.622 971.034 937.822 975.374 940.201 978.327 942.589 981.28 945.617 982.751 949.291 982.751 952.955 982.751 955.972 981.292 958.329 978.351 960.676 975.421 961.856 971.034 961.856 965.175 961.856 959.387 960.708 955.07 958.425 952.21 956.131 949.364 953.084 947.94 949.292 947.94 945.491 947.94 942.432 949.387 940.106 952.268 937.79 955.15 936.622 959.492 936.622 965.315ZM978.657 990.61 978.657 940.082 987.62 940.082 1006.29 973.822 1006.29 940.082 1014.85 940.082 1014.85 990.61 1005.6 990.61 987.216 957.659 987.216 990.61ZM1024.59 990.61 1024.59 940.082 1058.4 940.082 1058.4 948.635 1033.8 948.635 1033.8 959.835 1056.69 959.835 1056.69 968.341 1033.8 968.341 1033.8 982.092 1059.27 982.092 1059.27 990.61 1024.59 990.61ZM1064.76 974.175 1073.72 973.198C1074.25 976.539 1075.34 978.986 1077 980.552 1078.65 982.104 1080.87 982.892 1083.67 982.892 1086.63 982.892 1088.87 982.199 1090.37 980.798 1091.88 979.41 1092.63 977.787 1092.63 975.927 1092.63 974.727 1092.32 973.716 1091.68 972.879 1091.05 972.032 1089.95 971.302 1088.37 970.691 1087.29 970.267 1084.83 969.538 1081 968.48 1076.06 967.128 1072.59 965.458 1070.61 963.481 1067.81 960.705 1066.4 957.318 1066.4 953.317 1066.4 950.74 1067.06 948.341 1068.38 946.093 1069.7 943.857 1071.6 942.152 1074.07 940.976 1076.56 939.811 1079.54 939.222 1083.05 939.222 1088.78 939.222 1093.08 940.61 1095.98 943.386 1098.87 946.175 1100.39 949.879 1100.54 954.528L1091.33 954.975C1090.94 952.375 1090.09 950.505 1088.79 949.375 1087.5 948.234 1085.55 947.67 1082.96 947.67 1080.28 947.67 1078.18 948.269 1076.67 949.493 1075.7 950.27 1075.21 951.317 1075.21 952.622 1075.21 953.822 1075.67 954.847 1076.58 955.694 1077.74 956.777 1080.56 957.904 1085.04 959.069 1089.53 960.245 1092.84 961.458 1094.98 962.704 1097.13 963.963 1098.81 965.669 1100.03 967.845 1101.24 970.021 1101.84 972.704 1101.84 975.892 1101.84 978.786 1101.12 981.503 1099.67 984.02 1098.21 986.549 1096.16 988.432 1093.51 989.655 1090.85 990.889 1087.54 991.501 1083.58 991.501 1077.81 991.501 1073.38 990.031 1070.29 987.078 1067.2 984.125 1065.35 979.819 1064.76 974.171ZM1109.31 990.61 1109.31 940.082 1118.52 940.082 1118.52 990.61ZM1168.43 990.61 1158.41 990.61 1154.42 979.128 1136.19 979.128 1132.43 990.61 1122.66 990.61 1140.43 940.082 1150.16 940.082ZM1151.47 970.623 1145.18 951.871 1139.02 970.623Z" fill="#7D7E82" transform="matrix(1.00081 0 0 1 -1.35018 -628.832)"/><path d="M538.677 782.926 519.199 782.926C519.199 780.694 515.844 773.027 509.136 759.879 501.978 745.887 496.915 738.891 493.947 738.891L492.158 738.891C492.158 749.93 492.382 764.617 492.809 782.926L476.015 782.926C476.523 768.289 476.788 751.791 476.788 733.432 476.788 715.793 476.524 700.734 476.015 688.305L492.809 688.305C492.382 701.727 492.158 714.305 492.158 726.089L493.46 726.089C495.208 726.089 499.62 720.135 506.695 708.202 513.568 696.616 517.003 689.992 517.003 688.305L534.753 688.305C534.753 689.893 531.114 695.922 523.835 706.391 516.332 717.207 510.864 724.079 507.407 727.032L507.407 728.123C511.453 730.703 517.837 740.255 526.519 756.827 534.631 772.234 538.677 780.942 538.677 782.926ZM532.598 832.138C532.598 843.699 529.081 852.258 522.026 857.791 514.97 863.298 506.329 866.076 496.082 866.076 494.212 866.076 492.89 866.02 492.098 865.927 492.098 875.033 492.321 887.04 492.748 901.975L476.015 901.975C476.523 887.982 476.788 871.46 476.788 852.481 476.788 835.04 476.524 819.981 476.015 807.353L486.384 807.353C487.847 807.353 490.674 807.283 494.842 807.131 499.01 806.981 502.609 806.907 505.678 806.907 513.222 806.907 519.586 808.991 524.79 813.158 529.995 817.326 532.598 823.652 532.598 832.137ZM517.227 836.133C517.227 825.763 511.595 820.577 500.311 820.577 497.506 820.577 494.516 820.924 491.386 821.669 491.812 830.823 492.036 841.193 492.036 852.779 493.033 852.85 494.172 852.904 495.493 852.904 509.989 852.904 517.227 847.321 517.227 836.133ZM593.592 860.048C593.592 862.504 593.471 865.73 593.247 869.699L554.88 870.493C555.43 875.976 557.362 880.541 560.655 884.163 563.949 887.81 568.28 889.621 573.647 889.621 579.604 889.621 585.927 888.529 592.637 886.346L591.458 900.438C585.968 902.868 579.177 904.084 571.085 904.084 560.838 904.084 552.99 900.561 547.521 893.54 542.052 886.52 539.327 878.06 539.327 868.186 539.327 857.865 541.93 848.909 547.094 841.318 552.278 833.751 559.476 829.956 568.686 829.956 577.124 829.956 583.365 832.734 587.452 838.316 591.559 843.873 593.592 851.117 593.592 860.048ZM579.665 859.378C579.665 848.239 575.762 842.657 567.975 842.657 560.554 842.657 556.142 848.438 554.759 859.974ZM643.629 832.932 640.173 849.926C637.224 848.487 634.256 847.743 631.227 847.743 625.392 847.743 621.549 850.943 619.679 857.344 619.679 876.67 619.8 891.555 620.044 901.975L604.186 901.975C604.877 887.388 605.202 875.479 605.202 866.226 605.202 854.689 604.206 843.749 602.234 833.428L617.422 831.394C618.092 836.728 618.438 839.853 618.438 840.771L619.374 840.771C623.034 833.949 627.892 830.525 633.971 830.525 636.838 830.525 640.051 831.319 643.629 832.932ZM668.23 901.975 652.209 901.975C652.759 891.953 653.043 880.441 653.043 867.441 653.043 854.566 652.372 843.277 651.03 833.577L668.17 831.469C667.661 840.871 667.397 852.878 667.397 867.441 667.397 879.895 667.681 891.407 668.23 901.975ZM670.975 810.976C670.975 814.276 670.06 817.153 668.21 819.635 666.36 822.09 663.778 823.331 660.484 823.331 657.719 823.331 655.544 822.264 653.977 820.131 652.392 817.997 651.619 815.442 651.619 812.44 651.619 809.14 652.534 806.287 654.384 803.856 656.234 801.425 658.816 800.209 662.151 800.209 664.977 800.209 667.152 801.276 668.677 803.384 670.202 805.493 670.975 808.024 670.975 810.976ZM735.549 901.975 719.69 901.975C720.564 889.719 721.012 877.315 721.012 864.762 721.012 857.146 720.076 851.985 718.246 849.281 716.397 846.577 713.59 845.212 709.809 845.212 705.274 845.212 700.985 847.098 696.939 850.868 697.142 869.773 697.244 886.817 697.244 901.975L681.223 901.975C681.934 886.817 682.3 874.884 682.3 866.226 682.3 854.64 681.324 843.699 679.373 833.428L694.621 831.394 695.638 839.109 696.593 839.109C702.022 833.378 708.285 830.525 715.339 830.525 721.459 830.525 726.359 832.287 730.039 835.81 733.699 839.308 735.549 845.783 735.549 855.235 735.549 856.65 735.486 858.535 735.386 860.867 735.285 863.223 735.244 865.63 735.244 868.111 735.244 874.636 735.346 885.948 735.55 901.975ZM803.334 901.905 789.203 902.5C788.939 900.788 788.797 899.027 788.797 897.191L787.902 897.191C783.53 901.781 777.96 904.089 771.169 904.089 763.544 904.089 757.485 900.715 752.993 893.991 748.519 887.243 746.263 879.254 746.263 870.001 746.263 859.383 748.702 850.154 753.602 842.265 758.482 834.4 765.273 830.455 773.954 830.455 779.606 830.455 783.836 831.745 786.642 834.301L787.495 834.301C787.495 822.889 787.027 811.378 786.113 799.791L802.968 799.196C802.338 810.484 802.011 826.734 802.011 847.896 802.011 869.38 802.459 887.367 803.333 901.905ZM788.37 885.407C788.37 869.951 788.086 857.15 787.495 847.027 784.751 844.695 781.478 843.555 777.655 843.555 772.41 843.555 768.526 845.911 765.985 850.674 763.443 855.413 762.162 861.218 762.162 868.115 762.162 874.218 763.402 879.478 765.863 883.918 768.323 888.359 771.739 890.567 776.11 890.567 781.945 890.567 786.032 888.855 788.37 885.407ZM869.147 901.905 855.22 902.5C854.59 899.87 854.265 897.787 854.265 896.249L853.309 896.249C848.104 901.459 842.025 904.089 835.092 904.089 828.525 904.089 823.605 901.979 820.29 897.812 816.956 893.619 815.309 885.234 815.309 872.68 815.309 871.191 815.322 869.083 815.388 866.354 815.451 863.65 815.49 861.268 815.49 859.234 815.49 853.875 815.104 845.291 814.351 833.507L830.962 832.788C830.332 842.091 830.027 850.898 830.027 859.234 830.027 871.118 830.739 879.106 832.182 883.224 833.646 887.342 836.493 889.401 840.742 889.401 845.377 889.401 849.403 888.038 852.778 885.333 852.778 859.854 852.535 842.538 852.067 833.433L868.149 832.788C867.742 841.942 867.539 853.825 867.539 868.388 867.539 879.205 868.088 890.369 869.145 901.905ZM922.335 882.132C922.335 896.67 913.531 903.939 895.904 903.939 889.459 903.939 883.847 903.095 879.049 901.409L881.061 887.069C886.023 889.252 890.964 890.344 895.904 890.344 900.661 890.344 903.975 889.873 905.805 888.905 907.655 887.937 908.591 886.3 908.591 884.017 908.591 880.495 905.257 877.121 898.567 873.92 892.732 871.117 888.483 868.363 885.819 865.634 882.18 861.863 880.35 857.224 880.35 851.766 880.35 845.316 882.322 840.13 886.247 836.211 890.17 832.266 895.904 830.306 903.406 830.306 910.421 830.306 915.951 831.075 919.956 832.564L917.943 846.953C913.45 844.82 908.611 843.753 903.406 843.753 897.042 843.753 893.87 845.738 893.87 849.732 893.87 851.766 894.542 853.379 895.904 854.619 897.246 855.86 900.011 857.422 904.179 859.308 909.933 861.888 914.121 864.518 916.744 867.247 920.485 871.117 922.335 876.079 922.335 882.132ZM968.346 888.384 967.329 901.334C964.544 902.773 961.046 903.517 956.839 903.517 950.413 903.517 945.554 901.384 942.301 897.117 939.048 892.85 937.421 884.638 937.421 872.481 937.421 865.163 937.465 856.877 937.544 847.623 935.51 847.623 932.766 847.748 929.33 848.045L929.736 833.73C932.786 834.029 935.633 834.176 938.255 834.176 938.299 831.596 938.459 824.849 938.723 813.883L952.853 811.774C952.244 821.425 951.959 828.893 951.959 834.176 955.293 834.176 960.275 833.978 966.902 833.581L966.435 848.045C960.396 847.747 955.497 847.623 951.715 847.623 951.636 854.048 951.593 860.821 951.593 867.892 951.593 876.525 952.305 882.305 953.748 885.233 955.172 888.16 957.692 889.624 961.311 889.624 963.487 889.624 965.825 889.201 968.346 888.384ZM1016.59 832.936 1013.14 849.93C1010.19 848.491 1007.22 847.747 1004.19 847.747 998.356 847.747 994.513 850.947 992.643 857.348 992.643 876.674 992.764 891.559 993.009 901.979L977.15 901.979C977.841 887.392 978.167 875.483 978.167 866.23 978.167 854.693 977.17 843.753 975.198 833.432L990.386 831.398C991.057 836.732 991.402 839.857 991.402 840.775L992.337 840.775C995.998 833.953 1000.86 830.53 1006.94 830.53 1009.8 830.53 1013.02 831.323 1016.59 832.936ZM1041.19 901.979 1025.17 901.979C1025.72 891.957 1026.01 880.445 1026.01 867.445 1026.01 854.57 1025.34 843.282 1023.99 833.581L1041.13 831.473C1040.62 840.875 1040.36 852.882 1040.36 867.445 1040.36 879.899 1040.65 891.411 1041.19 901.979ZM1043.94 810.98C1043.94 814.28 1043.02 817.157 1041.17 819.639 1039.32 822.095 1036.74 823.335 1033.45 823.335 1030.68 823.335 1028.51 822.268 1026.94 820.135 1025.36 818.001 1024.58 815.446 1024.58 812.444 1024.58 809.144 1025.5 806.291 1027.35 803.86 1029.2 801.429 1031.78 800.213 1035.12 800.213 1037.94 800.213 1040.12 801.28 1041.64 803.388 1043.17 805.497 1043.94 808.028 1043.94 810.98ZM1103.14 901.905 1089.1 902.5C1088.44 900.441 1088.14 898.606 1088.14 896.968L1087.37 896.968C1083 901.508 1077.1 903.79 1069.66 903.79 1064.7 903.79 1060.59 902.104 1057.32 898.754 1054.02 895.38 1052.4 890.915 1052.4 885.333 1052.4 877.964 1054.94 871.936 1060.04 867.247 1065.15 862.533 1074.09 860.052 1086.88 859.755 1086.96 858.886 1087 858.043 1087 857.274 1087 852.039 1085.96 848.591 1083.91 846.929 1081.84 845.241 1078.05 844.423 1072.53 844.423 1066.53 844.423 1060.67 845.39 1054.96 847.325L1056.26 833.953C1061.67 831.671 1069.29 830.53 1079.13 830.53 1086.33 830.53 1091.88 832.366 1095.78 836.062 1099.71 839.734 1101.66 846.184 1101.66 855.388 1101.66 857.422 1101.58 861.144 1101.44 866.503 1101.31 871.886 1101.23 875.484 1101.23 877.27 1101.23 887.292 1101.86 895.505 1103.14 901.905ZM1087.25 886.796C1087 880.247 1086.88 874.59 1086.88 869.852 1073.34 869.852 1066.57 874.044 1066.57 882.43 1066.57 888.186 1069.56 891.088 1075.51 891.088 1080.19 891.088 1084.09 889.649 1087.25 886.796ZM1168.43 901.979 1152.57 901.979C1153.45 889.724 1153.89 877.319 1153.89 864.766 1153.89 857.15 1152.96 851.99 1151.13 849.285 1149.28 846.581 1146.47 845.217 1142.69 845.217 1138.16 845.217 1133.87 847.102 1129.82 850.873 1130.02 869.777 1130.13 886.821 1130.13 901.979L1114.1 901.979C1114.81 886.821 1115.18 874.888 1115.18 866.23 1115.18 854.644 1114.2 843.703 1112.25 833.432L1127.5 831.398 1128.52 839.113 1129.47 839.113C1134.9 833.383 1141.16 830.53 1148.22 830.53 1154.34 830.53 1159.24 832.291 1162.92 835.814 1166.58 839.312 1168.43 845.787 1168.43 855.239 1168.43 856.654 1168.37 858.539 1168.27 860.871 1168.17 863.228 1168.12 865.634 1168.12 868.115 1168.12 874.64 1168.23 885.952 1168.43 901.979ZM597.7 741.003C597.7 743.459 597.578 746.685 597.354 750.654L558.989 751.448C559.538 756.93 561.469 761.495 564.763 765.118 568.056 768.764 572.387 770.575 577.755 770.575 583.712 770.575 590.035 769.483 596.744 767.3L595.565 781.392C590.075 783.823 583.285 785.039 575.192 785.039 564.946 785.039 557.098 781.516 551.629 774.495 546.159 767.474 543.435 759.014 543.435 749.14 543.435 738.82 546.038 729.864 551.201 722.272 556.387 714.706 563.583 710.91 572.794 710.91 581.231 710.91 587.473 713.688 591.56 719.27 595.666 724.828 597.7 732.072 597.7 741.003ZM583.773 740.333C583.773 729.194 579.869 723.612 572.082 723.612 564.661 723.612 560.249 729.393 558.866 740.929ZM696.695 782.93 680.918 782.93C681.751 770.674 682.158 758.741 682.158 747.181 682.158 738.497 681.243 732.816 679.413 730.161 677.603 727.507 674.676 726.167 670.67 726.167 667.458 726.167 664.063 727.606 660.484 730.459 660.322 736.512 660.24 741.946 660.24 746.734 660.24 754.821 660.362 766.903 660.606 782.93L644.625 782.93C645.5 769.657 645.947 756.732 645.947 744.178 645.947 737.703 645.195 733.064 643.71 730.31 642.227 727.557 639.136 726.167 634.439 726.167 630.13 726.167 626.53 727.929 623.664 731.476 623.866 750.654 623.969 767.821 623.969 782.93L607.947 782.93C608.658 767.821 609.025 755.888 609.025 747.181 609.025 735.843 608.049 724.902 606.097 714.383L621.346 712.349 622.362 720.064 623.318 720.064C628.482 714.333 634.297 711.48 640.763 711.48 648.854 711.48 654.568 714.333 657.862 720.064L658.817 720.064C664.693 714.333 670.508 711.48 676.262 711.48 683.011 711.48 688.116 713.267 691.551 716.814 694.987 720.387 696.695 726.837 696.695 736.19 696.695 737.108 696.651 738.869 696.573 741.474 696.494 744.055 696.451 745.816 696.451 746.734 696.451 754.821 696.531 766.903 696.695 782.93ZM761.675 741.003C761.675 743.459 761.553 746.685 761.329 750.654L722.963 751.448C723.511 756.93 725.444 761.495 728.737 765.118 732.031 768.764 736.362 770.575 741.729 770.575 747.686 770.575 754.01 769.483 760.719 767.3L759.54 781.392C754.05 783.823 747.26 785.039 739.167 785.039 728.92 785.039 721.072 781.516 715.604 774.495 710.134 767.474 707.41 759.014 707.41 749.14 707.41 738.82 710.013 729.864 715.176 722.272 720.361 714.706 727.558 710.91 736.768 710.91 745.206 710.91 751.448 713.688 755.535 719.27 759.641 724.828 761.675 732.072 761.675 741.003ZM747.748 740.333C747.748 729.194 743.844 723.612 736.057 723.612 728.636 723.612 724.224 729.393 722.841 740.929ZM826.249 782.93 810.39 782.93C811.264 770.674 811.712 758.27 811.712 745.717 811.712 738.101 810.776 732.94 808.947 730.236 807.096 727.531 804.29 726.167 800.508 726.167 795.975 726.167 791.685 728.053 787.639 731.823 787.842 750.728 787.944 767.772 787.944 782.93L771.923 782.93C772.634 767.772 773 755.838 773 747.18 773 735.594 772.024 724.654 770.073 714.383L785.321 712.349 786.338 720.064 787.294 720.064C792.722 714.333 798.984 711.48 806.04 711.48 812.159 711.48 817.059 713.242 820.74 716.765 824.399 720.263 826.249 726.738 826.249 736.19 826.249 737.604 826.186 739.49 826.086 741.821 825.985 744.178 825.944 746.585 825.944 749.066 825.944 755.591 826.046 766.903 826.249 782.93ZM874.801 769.335 873.784 782.285C870.999 783.724 867.502 784.468 863.293 784.468 856.868 784.468 852.009 782.334 848.756 778.068 845.502 773.8 843.876 765.589 843.876 753.432 843.876 746.113 843.92 737.828 843.998 728.574 841.964 728.574 839.22 728.698 835.784 728.995L836.19 714.68C839.24 714.977 842.087 715.126 844.71 715.126 844.754 712.546 844.913 705.798 845.177 694.833L859.308 692.724C858.698 702.375 858.413 709.842 858.413 715.126 861.748 715.126 866.729 714.928 873.357 714.531L872.889 728.994C866.851 728.697 861.951 728.573 858.169 728.573 858.09 734.999 858.048 741.771 858.048 748.842 858.048 757.476 858.759 763.256 860.203 766.184 861.626 769.111 864.146 770.575 867.766 770.575 869.942 770.575 872.279 770.154 874.801 769.334ZM935.491 741.003C935.491 743.459 935.369 746.685 935.145 750.653L896.778 751.448C897.328 756.93 899.259 761.495 902.553 765.118 905.846 768.764 910.177 770.575 915.545 770.575 921.502 770.575 927.825 769.483 934.535 767.3L933.356 781.392C927.866 783.823 921.076 785.039 912.983 785.039 902.736 785.039 894.888 781.516 889.419 774.495 883.95 767.474 881.225 759.014 881.225 749.14 881.225 738.82 883.827 729.864 888.992 722.272 894.176 714.706 901.374 710.91 910.584 710.91 919.022 710.91 925.263 713.688 929.35 719.27 933.457 724.828 935.49 732.072 935.49 741.003ZM921.563 740.333C921.563 729.194 917.66 723.612 909.872 723.612 902.452 723.612 898.04 729.393 896.657 740.929ZM985.528 713.886 982.07 730.881C979.123 729.442 976.155 728.698 973.124 728.698 967.289 728.698 963.447 731.898 961.577 738.299 961.577 757.625 961.698 772.51 961.942 782.93L946.084 782.93C946.775 768.343 947.1 756.434 947.1 747.18 947.1 735.644 946.104 724.703 944.132 714.383L959.32 712.349C959.991 717.683 960.336 720.808 960.336 721.726L961.271 721.726C964.931 714.904 969.79 711.48 975.869 711.48 978.736 711.48 981.949 712.274 985.528 713.886ZM1010.13 782.93 994.107 782.93C994.655 772.908 994.941 761.396 994.941 748.396 994.941 735.52 994.27 724.232 992.928 714.532L1010.07 712.423C1009.56 721.825 1009.3 733.833 1009.3 748.396 1009.3 760.85 1009.58 772.361 1010.13 782.93ZM1012.87 691.931C1012.87 695.231 1011.96 698.108 1010.11 700.589 1008.26 703.045 1005.68 704.286 1002.38 704.286 999.617 704.286 997.441 703.219 995.875 701.086 994.29 698.951 993.517 696.396 993.517 693.395 993.517 690.095 994.432 687.242 996.282 684.811 998.132 682.379 1000.71 681.164 1004.05 681.164 1006.88 681.164 1009.05 682.231 1010.58 684.339 1012.1 686.448 1012.87 688.979 1012.87 691.931ZM1072.08 782.855 1058.03 783.451C1057.38 781.392 1057.07 779.556 1057.07 777.919L1056.3 777.919C1051.93 782.459 1046.03 784.741 1038.59 784.741 1033.63 784.741 1029.52 783.054 1026.25 779.705 1022.96 776.331 1021.33 771.865 1021.33 766.283 1021.33 758.915 1023.87 752.886 1028.98 748.198 1034.08 743.484 1043.02 741.003 1055.81 740.705 1055.89 739.837 1055.94 738.994 1055.94 738.224 1055.94 732.99 1054.9 729.542 1052.84 727.879 1050.77 726.192 1046.99 725.373 1041.46 725.373 1035.46 725.373 1029.61 726.341 1023.89 728.276L1025.19 714.904C1030.6 712.622 1038.23 711.48 1048.07 711.48 1055.26 711.48 1060.81 713.316 1064.72 717.013 1068.64 720.685 1070.59 727.135 1070.59 736.339 1070.59 738.373 1070.52 742.094 1070.37 747.453 1070.25 752.837 1070.17 756.434 1070.17 758.22 1070.17 768.243 1070.8 776.455 1072.08 782.855ZM1056.18 767.747C1055.94 761.198 1055.81 755.541 1055.81 750.802 1042.27 750.802 1035.5 754.995 1035.5 763.38 1035.5 769.136 1038.49 772.039 1044.45 772.039 1049.12 772.039 1053.03 770.6 1056.18 767.747ZM1137.36 782.93 1121.51 782.93C1122.38 770.674 1122.83 758.27 1122.83 745.717 1122.83 738.1 1121.89 732.94 1120.06 730.236 1118.21 727.531 1115.41 726.167 1111.62 726.167 1107.09 726.167 1102.8 728.053 1098.75 731.823 1098.96 750.728 1099.06 767.772 1099.06 782.93L1083.04 782.93C1083.75 767.772 1084.12 755.838 1084.12 747.18 1084.12 735.594 1083.14 724.654 1081.19 714.383L1096.44 712.349 1097.45 720.064 1098.41 720.064C1103.84 714.333 1110.1 711.48 1117.16 711.48 1123.27 711.48 1128.17 713.242 1131.85 716.765 1135.51 720.263 1137.36 726.738 1137.36 736.19 1137.36 737.604 1137.3 739.49 1137.2 741.821 1137.1 744.178 1137.06 746.585 1137.06 749.066 1137.06 755.591 1137.16 766.903 1137.36 782.93Z" fill="#09589E" fill-rule="evenodd" transform="matrix(1.00081 0 0 1 -1.35018 -628.832)"/></g></svg>